<svg width="14" height="14" viewBox="0 0 14 14" fill="none" xmlns="http://www.w3.org/2000/svg">
<path fill-rule="evenodd" clip-rule="evenodd" d="M13.5278 0.124986C13.6667 0.194431 13.8055 0.33332 13.875 0.472209C13.9444 0.541653 13.9444 0.680542 13.9444 0.749986V4.91665C13.9444 5.33332 13.6667 5.6111 13.25 5.6111C12.8333 5.6111 12.5555 5.33332 12.5555 4.91665V2.41665L6.09721 8.87499C5.95832 9.01388 5.81943 9.08332 5.6111 9.08332C5.40276 9.08332 5.26388 9.01388 5.12499 8.87499C4.84721 8.59721 4.84721 8.18054 5.12499 7.90276L11.5833 1.44443H9.08332C8.66665 1.44443 8.38888 1.16665 8.38888 0.749986C8.38888 0.33332 8.66665 0.055542 9.08332 0.055542H13.25C13.3194 0.055542 13.4583 0.055542 13.5278 0.124986ZM11.8611 11.8611V7.69443C11.8611 7.27776 11.5833 6.99999 11.1667 6.99999C10.75 6.99999 10.4722 7.27776 10.4722 7.69443V11.8611C10.4722 12.2778 10.1944 12.5555 9.77777 12.5555H2.13888C1.72221 12.5555 1.44443 12.2778 1.44443 11.8611V4.22221C1.44443 3.80554 1.72221 3.52776 2.13888 3.52776H6.30554C6.72221 3.52776 6.99999 3.24999 6.99999 2.83332C6.99999 2.41665 6.72221 2.13888 6.30554 2.13888H2.13888C0.95832 2.13888 0.055542 3.04165 0.055542 4.22221V11.8611C0.055542 13.0417 0.95832 13.9444 2.13888 13.9444H9.77777C10.9583 13.9444 11.8611 13.0417 11.8611 11.8611Z" fill="#222222" fill-opacity="0.9"/>
</svg>
